<?xml version="1.0" encoding="UTF-8"?><svg xmlns="http://www.w3.org/2000/svg" xmlns:xlink="http://www.w3.org/1999/xlink" viewBox="0 0 348.27 104.07"><defs><style>.h{fill:url(#e);}.i{fill:url(#d);}.j{fill:url(#g);}.k{fill:url(#f);}.l{fill:#002c6d;}</style><linearGradient id="d" x1="29.76" y1="21.47" x2="58.5" y2="94.92" gradientTransform="matrix(1, 0, 0, 1, 0, 0)" gradientUnits="userSpaceOnUse"><stop offset="0" stop-color="#7d2bdc"/><stop offset="1" stop-color="#3674ff"/></linearGradient><linearGradient id="e" x1="12.61" y1="28.18" x2="41.35" y2="101.63" xlink:href="#d"/><linearGradient id="f" x1="21.6" y1="24.66" x2="50.34" y2="98.11" xlink:href="#d"/><linearGradient id="g" x1="30.02" y1="21.37" x2="58.76" y2="94.82" xlink:href="#d"/></defs><g id="a"/><g id="b"><g id="c"><g><g><path class="l" d="M141.62,59.19v14.68c0,3.25-.76,6.21-2.28,8.87-1.52,2.67-3.6,4.76-6.25,6.28-2.65,1.52-5.59,2.28-8.84,2.28s-6.2-.76-8.84-2.28c-2.64-1.52-4.73-3.61-6.25-6.28-1.52-2.67-2.28-5.62-2.28-8.87s.74-6.19,2.22-8.84c1.48-2.64,3.5-4.73,6.06-6.25,2.56-1.52,5.43-2.28,8.59-2.28,2.71,0,5.18,.57,7.43,1.72,2.25,1.15,4.1,2.72,5.56,4.72v-18.3c0-.71,.23-1.29,.69-1.75,.46-.46,1.04-.69,1.75-.69s1.28,.23,1.72,.69c.44,.46,.66,1.04,.66,1.75v13.99c.04,.12,.06,.31,.06,.56Zm-10.93,26.02c1.92-1.15,3.43-2.71,4.53-4.69,1.1-1.98,1.66-4.2,1.66-6.65,0-.71-.02-1.23-.06-1.56-.04-.08-.06-.19-.06-.31-.42-3.25-1.78-5.91-4.09-8-2.31-2.08-5.11-3.12-8.4-3.12-2.37,0-4.53,.56-6.47,1.69-1.94,1.12-3.46,2.68-4.56,4.65-1.1,1.98-1.66,4.2-1.66,6.65s.55,4.68,1.66,6.65c1.1,1.98,2.62,3.54,4.56,4.69,1.94,1.15,4.09,1.72,6.47,1.72s4.52-.57,6.43-1.72Z"/><path class="l" d="M183.23,57.47c.46,.44,.69,1.01,.69,1.72v29.36c0,.71-.23,1.29-.69,1.75-.46,.46-1.04,.69-1.75,.69s-1.28-.23-1.72-.69c-.44-.46-.66-1.04-.66-1.75v-2.12c-1.37,1.54-3.04,2.75-5,3.62-1.96,.87-4.08,1.31-6.37,1.31-2.96,0-5.61-.62-7.96-1.87-2.35-1.25-4.2-3.07-5.53-5.47-1.33-2.39-2-5.26-2-8.59v-16.24c0-.67,.23-1.23,.69-1.69,.46-.46,1.02-.69,1.69-.69,.71,0,1.29,.23,1.75,.69,.46,.46,.69,1.02,.69,1.69v16.24c0,3.71,1.03,6.53,3.09,8.46,2.06,1.94,4.76,2.9,8.09,2.9,2.04,0,3.88-.4,5.53-1.19,1.65-.79,2.95-1.88,3.9-3.28,.96-1.39,1.44-2.95,1.44-4.65v-18.49c0-.71,.22-1.28,.66-1.72,.44-.44,1.01-.66,1.72-.66s1.29,.22,1.75,.66Z"/><path class="l" d="M219.3,58.31c2.35,1.25,4.2,3.07,5.53,5.47,1.33,2.39,2,5.26,2,8.59v16.24c0,.67-.23,1.23-.69,1.69-.46,.46-1.02,.69-1.69,.69-.71,0-1.29-.23-1.75-.69-.46-.46-.69-1.02-.69-1.69v-16.24c0-3.71-1.03-6.53-3.09-8.46-2.06-1.94-4.76-2.9-8.09-2.9-2.04,0-3.88,.4-5.53,1.19-1.65,.79-2.95,1.88-3.9,3.28-.96,1.4-1.44,2.95-1.44,4.65v18.49c0,.71-.22,1.28-.66,1.72-.44,.44-1.01,.66-1.72,.66s-1.29-.22-1.75-.66c-.46-.44-.69-1.01-.69-1.72v-29.36c0-.71,.23-1.29,.69-1.75,.46-.46,1.04-.69,1.75-.69s1.28,.23,1.72,.69c.44,.46,.66,1.04,.66,1.75v2.12c1.37-1.54,3.04-2.75,5-3.62,1.96-.88,4.08-1.31,6.37-1.31,2.96,0,5.61,.62,7.97,1.87Z"/><path class="l" d="M261.84,58.78c2.64,1.52,4.73,3.61,6.25,6.28,1.52,2.67,2.28,5.62,2.28,8.87v14.68c0,.67-.23,1.23-.69,1.69-.46,.46-1.04,.69-1.75,.69s-1.29-.22-1.75-.66-.69-1.01-.69-1.72v-3.75c-1.46,2-3.31,3.57-5.56,4.72-2.25,1.15-4.73,1.72-7.43,1.72-3.17,0-6.03-.76-8.59-2.28-2.56-1.52-4.58-3.6-6.06-6.25-1.48-2.64-2.22-5.59-2.22-8.84s.76-6.21,2.28-8.87c1.52-2.66,3.6-4.76,6.25-6.28,2.64-1.52,5.59-2.28,8.84-2.28s6.19,.76,8.84,2.28Zm-2.41,26.46c1.92-1.12,3.43-2.68,4.53-4.65,1.1-1.98,1.66-4.2,1.66-6.65s-.55-4.67-1.66-6.65c-1.1-1.98-2.61-3.54-4.53-4.69-1.92-1.14-4.06-1.72-6.43-1.72s-4.53,.57-6.47,1.72c-1.94,1.15-3.46,2.71-4.56,4.69-1.1,1.98-1.66,4.2-1.66,6.65s.55,4.68,1.66,6.65c1.1,1.98,2.62,3.53,4.56,4.65,1.94,1.12,4.09,1.69,6.47,1.69s4.52-.56,6.43-1.69Z"/><path class="l" d="M296.42,86.86c.42,.46,.62,1.04,.62,1.75,0,.67-.25,1.23-.75,1.69-.5,.46-1.12,.69-1.87,.69h-1.31c-2.21,0-4.18-.53-5.93-1.59-1.75-1.06-3.11-2.5-4.09-4.31-.98-1.81-1.47-3.86-1.47-6.15v-16.68h-4.06c-.67,0-1.2-.2-1.59-.59-.4-.4-.59-.88-.59-1.47,0-.62,.2-1.13,.59-1.53s.93-.59,1.59-.59h4.06v-9.68c0-.71,.22-1.29,.66-1.75,.44-.46,1.01-.69,1.72-.69s1.29,.23,1.75,.69c.46,.46,.69,1.04,.69,1.75v9.68h7.06c.67,0,1.2,.2,1.59,.59s.59,.91,.59,1.53c0,.58-.2,1.07-.59,1.47-.4,.4-.93,.59-1.59,.59h-7.06v16.68c0,2.12,.62,3.86,1.87,5.22,1.25,1.35,2.85,2.03,4.81,2.03h1.69c.67,0,1.21,.23,1.62,.69Z"/><path class="l" d="M305.82,49.32c-.65-.67-.97-1.48-.97-2.44s.33-1.81,1-2.44c.66-.62,1.48-.94,2.44-.94s1.71,.31,2.37,.94c.67,.62,1,1.44,1,2.44s-.33,1.77-1,2.44c-.67,.67-1.48,1-2.44,1s-1.76-.33-2.41-1Zm.72,40.98c-.46-.46-.69-1.04-.69-1.75v-29.3c0-.71,.23-1.29,.69-1.75,.46-.46,1.04-.69,1.75-.69s1.28,.23,1.72,.69c.44,.46,.66,1.04,.66,1.75v29.3c0,.71-.22,1.29-.66,1.75-.44,.46-1.01,.69-1.72,.69s-1.29-.23-1.75-.69Z"/><path class="l" d="M327.41,89.99c-2.37-.87-4.29-2.1-5.75-3.69-.42-.5-.62-.98-.62-1.44,0-.71,.33-1.33,1-1.87,.5-.38,1.02-.56,1.56-.56,.71,0,1.31,.29,1.81,.87,1,1.17,2.32,2.06,3.97,2.69,1.64,.62,3.47,.94,5.47,.94,2.91,0,5.1-.5,6.56-1.5,1.46-1,2.21-2.31,2.25-3.94,0-1.5-.73-2.75-2.19-3.75-1.46-1-3.77-1.75-6.93-2.25-4.08-.67-7.13-1.82-9.15-3.47-2.02-1.64-3.03-3.63-3.03-5.97,0-3.04,1.18-5.39,3.53-7.06,2.35-1.67,5.3-2.5,8.84-2.5,2.75,0,5.14,.47,7.18,1.41,2.04,.94,3.69,2.24,4.94,3.9,.33,.54,.5,1.02,.5,1.44,0,.71-.33,1.27-1,1.69-.29,.21-.69,.31-1.19,.31-.88,0-1.6-.31-2.19-.94-2.04-2.33-4.83-3.5-8.37-3.5-2.29,0-4.12,.47-5.5,1.41-1.37,.94-2.06,2.11-2.06,3.53,0,1.5,.65,2.7,1.94,3.59s3.58,1.61,6.87,2.16c4.46,.75,7.64,1.97,9.56,3.65,1.91,1.69,2.87,3.78,2.87,6.28,0,1.92-.57,3.62-1.72,5.12s-2.74,2.67-4.78,3.5c-2.04,.83-4.35,1.25-6.93,1.25s-5.06-.44-7.43-1.31Z"/></g><g><path class="i" d="M73.62,36.01v31.12c0,6.88-1.61,13.15-4.84,18.8-3.22,5.65-7.63,10.08-13.24,13.31-5.61,3.22-11.85,4.83-18.74,4.83s-13.13-1.61-18.73-4.83c-5.61-3.22-10.02-7.66-13.24-13.31-3.22-5.65-4.83-11.92-4.83-18.8s1.57-13.13,4.7-18.74c3.13-5.6,7.41-10.02,12.84-13.24,5.43-3.22,11.5-4.83,18.2-4.83,5.74,0,10.99,1.21,15.76,3.64,4.76,2.43,8.69,5.76,11.78,9.99V5.16c0-1.5,.48-2.74,1.46-3.71,.97-.97,2.21-1.46,3.71-1.46s2.71,.49,3.64,1.46c.92,.97,1.39,2.21,1.39,3.71v29.66c.09,.27,.13,.66,.13,1.19Zm-23.17,55.14c4.05-2.42,7.26-5.74,9.59-9.93,2.34-4.19,3.51-8.89,3.51-14.1,0-1.5-.04-2.6-.13-3.31-.09-.18-.13-.4-.13-.66-.89-6.88-3.77-12.53-8.67-16.95-4.9-4.41-10.84-6.62-17.81-6.62-5.03,0-9.59,1.19-13.7,3.57-4.1,2.38-7.33,5.67-9.66,9.87-2.34,4.19-3.51,8.89-3.51,14.1s1.17,9.91,3.51,14.1c2.34,4.19,5.56,7.51,9.66,9.93,4.11,2.43,8.68,3.64,13.7,3.64s9.58-1.21,13.64-3.64Z"/><g><path class="h" d="M30.49,87.55c-.34,0-.69-.07-1.03-.23-7.71-3.68-12.69-11.73-12.69-20.51s5.03-16.92,12.82-20.57c1.19-.56,2.61-.05,3.17,1.15,.56,1.19,.05,2.61-1.15,3.17-6.12,2.87-10.08,9.25-10.08,16.25s3.91,13.31,9.97,16.2c1.19,.57,1.69,1.99,1.12,3.18-.41,.86-1.26,1.36-2.15,1.36Z"/><path class="k" d="M38.97,78.87c-.5,0-1-.16-1.43-.48-3.63-2.73-5.8-7.05-5.8-11.55s2.25-8.98,6.02-11.71c1.07-.77,2.56-.53,3.33,.53,.77,1.07,.53,2.56-.53,3.33-2.53,1.83-4.04,4.76-4.04,7.84s1.46,5.9,3.9,7.74c1.05,.79,1.26,2.29,.47,3.34-.47,.62-1.18,.95-1.91,.95Z"/><circle class="j" cx="47.79" cy="66.78" r="2.73"/></g></g></g></g></g></svg>